HIERARCHY
ROOT root
{
	OFFSET	0	13.1	24.9
	CHANNELS 6  Xposition Yposition Zposition Xrotation Yrotation Zrotation
	JOINT spine_1
	{
		OFFSET	0	9.99999	0
		CHANNELS 3  Xrotation Yrotation Zrotation
		JOINT spine_2
		{
			OFFSET	0	112	-10
			CHANNELS 3  Xrotation Yrotation Zrotation
			JOINT spine_3
			{
				OFFSET	0	206.5	19.3
				CHANNELS 3  Xrotation Yrotation Zrotation
				JOINT spine_4
				{
					OFFSET	0	110.4	14.6
					CHANNELS 3  Xrotation Yrotation Zrotation
					JOINT neck_1
					{
						OFFSET	0	71.8	-50.3
						CHANNELS 3  Xrotation Yrotation Zrotation
						JOINT neck_2
						{
							OFFSET	0	86.2	-25.8
							CHANNELS 3  Xrotation Yrotation Zrotation
							JOINT head_ee
							{
								OFFSET	0	179.8	-8.7
								CHANNELS 3  Xrotation Yrotation Zrotation
								End Site
								{
									OFFSET	1	0	0
								}
							}
						}
					}
					JOINT left_clavicle
					{
						OFFSET	-43.2	22.4	-70.8
						CHANNELS 3  Xrotation Yrotation Zrotation
						JOINT left_shoulder
						{
							OFFSET	-93.9	-5.79999	48.7
							CHANNELS 3  Xrotation Yrotation Zrotation
							JOINT left_elbow
							{
								OFFSET	-291.4	-30.8	15.2
								CHANNELS 3  Xrotation Yrotation Zrotation
								JOINT left_lowarm_twist
								{
									OFFSET	-110.7	-3.89999	13.6
									CHANNELS 3  Xrotation Yrotation Zrotation
									JOINT left_hand
									{
										OFFSET	-110.7	-3.89999	13.6
										CHANNELS 3  Xrotation Yrotation Zrotation
										JOINT left_ee
										{
											OFFSET	-80.8	-5.10001	12.1
											CHANNELS 3  Xrotation Yrotation Zrotation
											End Site
											{
												OFFSET	1	0	0
											}
										}
									}
								}
							}
						}
					}
					JOINT right_clavicle
					{
						OFFSET	43.2	22.4	-70.8
						CHANNELS 3  Xrotation Yrotation Zrotation
						JOINT right_shoulder
						{
							OFFSET	93.9	-5.79999	48.7
							CHANNELS 3  Xrotation Yrotation Zrotation
							JOINT right_elbow
							{
								OFFSET	291.4	-30.8	15.2
								CHANNELS 3  Xrotation Yrotation Zrotation
								JOINT right_lowarm_twist
								{
									OFFSET	110.7	-3.89999	13.6
									CHANNELS 3  Xrotation Yrotation Zrotation
									JOINT right_hand
									{
										OFFSET	110.7	-3.89999	13.6
										CHANNELS 3  Xrotation Yrotation Zrotation
										JOINT right_ee
										{
											OFFSET	80.8	-5.10001	12.1
											CHANNELS 3  Xrotation Yrotation Zrotation
											End Site
											{
												OFFSET	1	0	0
											}
										}
									}
								}
							}
						}
					}
				}
			}
		}
	}
	JOINT left_hip
	{
		OFFSET	-82.8	-127.5	0.300001
		CHANNELS 3  Xrotation Yrotation Zrotation
		JOINT left_knee
		{
			OFFSET	-28.2	-396.7	2.2
			CHANNELS 3  Xrotation Yrotation Zrotation
			JOINT left_ankle
			{
				OFFSET	-11.7	-411.3	35.4
				CHANNELS 3  Xrotation Yrotation Zrotation
				JOINT left_toes
				{
					OFFSET	0	-60	-88.6
					CHANNELS 3  Xrotation Yrotation Zrotation
					JOINT left_foot_ee
					{
						OFFSET	-22.5	-16.5	-42.2
						CHANNELS 3  Xrotation Yrotation Zrotation
						End Site
						{
							OFFSET	1	0	0
						}
					}
				}
			}
		}
	}
	JOINT right_hip
	{
		OFFSET	82.8	-127.5	0.300001
		CHANNELS 3  Xrotation Yrotation Zrotation
		JOINT right_knee
		{
			OFFSET	28.2	-396.7	2.2
			CHANNELS 3  Xrotation Yrotation Zrotation
			JOINT right_ankle
			{
				OFFSET	11.7	-411.3	35.4
				CHANNELS 3  Xrotation Yrotation Zrotation
				JOINT right_toes
				{
					OFFSET	0	-60	-88.6
					CHANNELS 3  Xrotation Yrotation Zrotation
					JOINT right_foot_ee
					{
						OFFSET	22.5	-16.5	-42.2
						CHANNELS 3  Xrotation Yrotation Zrotation
						End Site
						{
							OFFSET	1	0	0
						}
					}
				}
			}
		}
	}
}
MOTION
Frames: 13
Frame Time: 0.02
1041.4 574.639 -1682.42 -12.2159207717 13.3033636725 4.0595609434 7.45261 -0.132196 -1.72997 7.45428 -0.021863 -1.73487 7.45241 0.1198 -1.73087 7.44827 -0.15502 -1.72807 -18.2243 7.23617 -0.149817 -18.4697 14.0024 2.6952 -0.0 0.0 -0.0 4.51247 11.0253 9.00222 -35.4257 -14.5588 69.5092 1.08399 -28.234 0.27263 -13.3501 -0.656781 1.57169 0.334045 16.417 8.76312 -0.0 0.0 -0.0 4.76361 13.1358 -8.4798 -16.6241 0.0526586 -64.4834 1.83041 42.1955 -0.706265 77.0446 3.50221 8.43447 1.11717 -19.2865 -14.6369 0.0 0.0 0.0 32.2142 -25.4544 -2.87978 4.37629 -0.204794 -0.640057 -25.38 30.1859 4.10446 15.5898 -0.0 -0.0 -0.0 0.0 -0.0 10.6527 0.653785 2.92999 -28.2606 -0.106749 -4.29187 21.9827 13.8017 3.17868 18.8655 -0.0 -0.0 0.0 0.0 0.0 
1041.4 574.639 -1682.42 -12.2548884874 14.0420224777 4.22441283998 7.45261 -0.132196 -1.72997 7.45428 -0.021863 -1.73487 7.45241 0.1198 -1.73087 7.44827 -0.15502 -1.72807 -18.2243 7.23617 -0.149817 -18.4697 14.0024 2.6952 -0.0 0.0 -0.0 4.51247 11.0253 9.00222 -35.4257 -14.5588 69.5092 1.08399 -28.234 0.27263 -13.3501 -0.656781 1.57169 0.334045 16.417 8.76312 -0.0 0.0 -0.0 4.76361 13.1358 -8.4798 -16.6241 0.0526586 -64.4834 1.83041 42.1955 -0.706265 77.0446 3.50221 8.43447 1.11717 -19.2865 -14.6369 0.0 0.0 0.0 32.2142 -25.4544 -2.87978 4.37629 -0.204794 -0.640057 -25.38 30.1859 4.10446 15.5898 -0.0 -0.0 -0.0 0.0 -0.0 10.6527 0.653785 2.92999 -28.2606 -0.106749 -4.29187 21.9827 13.8017 3.17868 18.8655 -0.0 -0.0 0.0 0.0 0.0 
1041.4 574.639 -1682.42 -12.3039479135 14.9149001505 4.42063208248 7.45261 -0.132196 -1.72997 7.45428 -0.021863 -1.73487 7.45241 0.1198 -1.73087 7.44827 -0.15502 -1.72807 -18.2243 7.23617 -0.149817 -18.4697 14.0024 2.6952 -0.0 0.0 -0.0 4.51247 11.0253 9.00222 -35.4257 -14.5588 69.5092 1.08399 -28.234 0.27263 -13.3501 -0.656781 1.57169 0.334045 16.417 8.76312 -0.0 0.0 -0.0 4.76361 13.1358 -8.4798 -16.6241 0.0526586 -64.4834 1.83041 42.1955 -0.706265 77.0446 3.50221 8.43447 1.11717 -19.2865 -14.6369 0.0 0.0 0.0 32.2142 -25.4544 -2.87978 4.37629 -0.204794 -0.640057 -25.38 30.1859 4.10446 15.5898 -0.0 -0.0 -0.0 0.0 -0.0 10.6527 0.653785 2.92999 -28.2606 -0.106749 -4.29187 21.9827 13.8017 3.17868 18.8655 -0.0 -0.0 0.0 0.0 0.0 
1041.4 574.639 -1682.42 -12.3413836513 15.5443538534 4.56314005692 7.45261 -0.132196 -1.72997 7.45428 -0.021863 -1.73487 7.45241 0.1198 -1.73087 7.44827 -0.15502 -1.72807 -18.2243 7.23617 -0.149817 -18.4697 14.0024 2.6952 -0.0 0.0 -0.0 4.51247 11.0253 9.00222 -35.4257 -14.5588 69.5092 1.08399 -28.234 0.27263 -13.3501 -0.656781 1.57169 0.334045 16.417 8.76312 -0.0 0.0 -0.0 4.76361 13.1358 -8.4798 -16.6241 0.0526586 -64.4834 1.83041 42.1955 -0.706265 77.0446 3.50221 8.43447 1.11717 -19.2865 -14.6369 0.0 0.0 0.0 32.2142 -25.4544 -2.87978 4.37629 -0.204794 -0.640057 -25.38 30.1859 4.10446 15.5898 -0.0 -0.0 -0.0 0.0 -0.0 10.6527 0.653785 2.92999 -28.2606 -0.106749 -4.29187 21.9827 13.8017 3.17868 18.8655 -0.0 -0.0 0.0 0.0 0.0 
1041.4 574.639 -1682.42 -12.3858810562 16.2569512777 4.72555378449 7.45261 -0.132196 -1.72997 7.45428 -0.021863 -1.73487 7.45241 0.1198 -1.73087 7.44827 -0.15502 -1.72807 -18.2243 7.23617 -0.149817 -18.4697 14.0024 2.6952 -0.0 0.0 -0.0 4.51247 11.0253 9.00222 -35.4257 -14.5588 69.5092 1.08399 -28.234 0.27263 -13.3501 -0.656781 1.57169 0.334045 16.417 8.76312 -0.0 0.0 -0.0 4.76361 13.1358 -8.4798 -16.6241 0.0526586 -64.4834 1.83041 42.1955 -0.706265 77.0446 3.50221 8.43447 1.11717 -19.2865 -14.6369 0.0 0.0 0.0 32.2142 -25.4544 -2.87978 4.37629 -0.204794 -0.640057 -25.38 30.1859 4.10446 15.5898 -0.0 -0.0 -0.0 0.0 -0.0 10.6527 0.653785 2.92999 -28.2606 -0.106749 -4.29187 21.9827 13.8017 3.17868 18.8655 -0.0 -0.0 0.0 0.0 0.0 
1041.4 574.639 -1682.42 -12.4060971074 16.5692037452 4.79709945436 7.45261 -0.132196 -1.72997 7.45428 -0.021863 -1.73487 7.45241 0.1198 -1.73087 7.44827 -0.15502 -1.72807 -18.2243 7.23617 -0.149817 -18.4697 14.0024 2.6952 -0.0 0.0 -0.0 4.51247 11.0253 9.00222 -35.4257 -14.5588 69.5092 1.08399 -28.234 0.27263 -13.3501 -0.656781 1.57169 0.334045 16.417 8.76312 -0.0 0.0 -0.0 4.76361 13.1358 -8.4798 -16.6241 0.0526586 -64.4834 1.83041 42.1955 -0.706265 77.0446 3.50221 8.43447 1.11717 -19.2865 -14.6369 0.0 0.0 0.0 32.2142 -25.4544 -2.87978 4.37629 -0.204794 -0.640057 -25.38 30.1859 4.10446 15.5898 -0.0 -0.0 -0.0 0.0 -0.0 10.6527 0.653785 2.92999 -28.2606 -0.106749 -4.29187 21.9827 13.8017 3.17868 18.8655 -0.0 -0.0 0.0 0.0 0.0 
1041.4 574.639 -1682.42 -12.4570550733 17.3277309643 4.97190154001 7.45261 -0.132196 -1.72997 7.45428 -0.021863 -1.73487 7.45241 0.1198 -1.73087 7.44827 -0.15502 -1.72807 -18.2243 7.23617 -0.149817 -18.4697 14.0024 2.6952 -0.0 0.0 -0.0 4.51247 11.0253 9.00222 -35.4257 -14.5588 69.5092 1.08399 -28.234 0.27263 -13.3501 -0.656781 1.57169 0.334045 16.417 8.76312 -0.0 0.0 -0.0 4.76361 13.1358 -8.4798 -16.6241 0.0526586 -64.4834 1.83041 42.1955 -0.706265 77.0446 3.50221 8.43447 1.11717 -19.2865 -14.6369 0.0 0.0 0.0 32.2142 -25.4544 -2.87978 4.37629 -0.204794 -0.640057 -25.38 30.1859 4.10446 15.5898 -0.0 -0.0 -0.0 0.0 -0.0 10.6527 0.653785 2.92999 -28.2606 -0.106749 -4.29187 21.9827 13.8017 3.17868 18.8655 -0.0 -0.0 0.0 0.0 0.0 
1041.4 574.639 -1682.42 -12.5299610395 18.350137299 5.20988038 7.45261 -0.132196 -1.72997 7.45428 -0.021863 -1.73487 7.45241 0.1198 -1.73087 7.44827 -0.15502 -1.72807 -18.2243 7.23617 -0.149817 -18.4697 14.0024 2.6952 -0.0 0.0 -0.0 4.51247 11.0253 9.00222 -35.4257 -14.5588 69.5092 1.08399 -28.234 0.27263 -13.3501 -0.656781 1.57169 0.334045 16.417 8.76312 -0.0 0.0 -0.0 4.76361 13.1358 -8.4798 -16.6241 0.0526586 -64.4834 1.83041 42.1955 -0.706265 77.0446 3.50221 8.43447 1.11717 -19.2865 -14.6369 0.0 0.0 0.0 32.2142 -25.4544 -2.87978 4.37629 -0.204794 -0.640057 -25.38 30.1859 4.10446 15.5898 -0.0 -0.0 -0.0 0.0 -0.0 10.6527 0.653785 2.92999 -28.2606 -0.106749 -4.29187 21.9827 13.8017 3.17868 18.8655 -0.0 -0.0 0.0 0.0 0.0 
1023.8206589 578.148 -1695.44831571 -13.2494599741 17.8684699557 5.62286910443 7.53192 -0.0814563 -1.95878 7.53405 0.0433265 -1.95999 7.52932 0.200576 -1.95019 7.52403 -0.109876 -1.95739 -19.4106 7.74796 0.0820861 -19.7195 14.8841 3.28217 -0.0 0.0 -0.0 4.62287 11.4044 9.19568 -34.2846 -13.3471 69.9584 1.13181 -29.2768 0.295633 -14.1498 -0.707567 1.66054 0.163531 16.3784 7.69134 -0.0 0.0 -0.0 4.7058 13.5977 -8.3237 -18.5653 -0.0126623 -64.1733 1.71293 40.3123 -0.628788 77.5621 3.56045 8.46641 1.09265 -18.8405 -14.3366 0.0 0.0 0.0 31.3763 -25.963 -3.40635 4.96349 -0.235983 -0.724715 -24.3124 29.463 3.9126 17.0875 -0.0 -0.0 -0.0 0.0 -0.0 10.6765 -1.00013 4.13526 -27.5327 -0.130634 -4.1827 21.996 13.9318 3.1831 18.9732 -0.0 -0.0 0.0 0.0 0.0 
986.189560559 585.219 -1726.93255096 -14.6688777507 17.7580188687 6.84755832134 7.92023 -0.308287 -2.34967 7.92329 -0.15819 -2.36452 7.9247 0.0157019 -2.36975 7.91704 -0.358648 -2.34252 -20.2907 8.90408 1.53436 -20.687 16.3973 5.2599 -0.0 0.0 -0.0 5.06338 11.4998 9.95249 -32.2957 -13.433 68.5884 1.171 -30.116 0.31505 -14.8659 -0.754098 1.7395 -0.00768673 16.1716 6.55212 -0.0 0.0 -0.0 4.68476 14.5593 -8.20679 -22.3046 -1.29653 -63.7474 1.35097 33.7899 -0.410343 77.7976 3.58705 8.48077 0.853285 -18.2589 -12.6504 0.0 0.0 0.0 31.3764 -24.6847 -2.57988 4.28432 -0.199988 -0.62677 -24.1224 30.5812 3.91176 16.8061 -0.0 -0.0 -0.0 0.0 -0.0 11.2082 -0.225481 5.0459 -28.2004 -0.108776 -4.28286 20.0334 15.8393 2.96915 18.6234 -0.0 -0.0 0.0 0.0 0.0 
985.407324598 585.219 -1725.94447722 -14.7541431973 18.7427967184 7.11981300496 7.92023 -0.308287 -2.34967 7.92329 -0.15819 -2.36452 7.9247 0.0157019 -2.36975 7.91704 -0.358648 -2.34252 -20.2907 8.90408 1.53436 -20.687 16.3973 5.2599 -0.0 0.0 -0.0 5.06338 11.4998 9.95249 -32.2957 -13.433 68.5884 1.171 -30.116 0.31505 -14.8659 -0.754098 1.7395 -0.00768673 16.1716 6.55212 -0.0 0.0 -0.0 4.68476 14.5593 -8.20679 -22.3046 -1.29653 -63.7474 1.35097 33.7899 -0.410343 77.7976 3.58705 8.48077 0.853285 -18.2589 -12.6504 0.0 0.0 0.0 31.3764 -24.6847 -2.57988 4.28432 -0.199988 -0.62677 -24.1224 30.5812 3.91176 16.8061 -0.0 -0.0 -0.0 0.0 -0.0 11.2082 -0.225481 5.0459 -28.2004 -0.108776 -4.28286 20.0334 15.8393 2.96915 18.6234 -0.0 -0.0 0.0 0.0 0.0 
984.139388735 585.219 -1724.26234952 -14.9089841338 20.3879834445 7.58213711869 7.92023 -0.308287 -2.34967 7.92329 -0.15819 -2.36452 7.9247 0.0157019 -2.36975 7.91704 -0.358648 -2.34252 -20.2907 8.90408 1.53436 -20.687 16.3973 5.2599 -0.0 0.0 -0.0 5.06338 11.4998 9.95249 -32.2957 -13.433 68.5884 1.171 -30.116 0.31505 -14.8659 -0.754098 1.7395 -0.00768673 16.1716 6.55212 -0.0 0.0 -0.0 4.68476 14.5593 -8.20679 -22.3046 -1.29653 -63.7474 1.35097 33.7899 -0.410343 77.7976 3.58705 8.48077 0.853285 -18.2589 -12.6504 0.0 0.0 0.0 31.3764 -24.6847 -2.57988 4.28432 -0.199988 -0.62677 -24.1224 30.5812 3.91176 16.8061 -0.0 -0.0 -0.0 0.0 -0.0 11.2082 -0.225481 5.0459 -28.2004 -0.108776 -4.28286 20.0334 15.8393 2.96915 18.6234 -0.0 -0.0 0.0 0.0 0.0 
966.0930122 592.524 -1736.18263581 -15.4122867357 22.8595995611 8.45468443383 8.04617 -0.541893 -2.51959 8.04962 -0.38052 -2.54894 8.06048 -0.198812 -2.56949 8.05177 -0.601992 -2.50591 -20.4869 9.13302 1.53223 -20.9133 16.8469 5.39366 -0.0 0.0 -0.0 5.7078 10.2642 11.0831 -31.34 -14.0359 68.6122 1.19059 -30.5302 0.32494 -15.2396 -0.778769 1.78048 -0.0834069 15.8056 5.93987 -0.0 0.0 -0.0 4.60841 14.7026 -8.0334 -24.3815 -1.62159 -63.5644 1.19091 30.5371 -0.325106 77.904 3.59909 8.48723 0.683439 -18.2131 -11.5821 0.0 0.0 0.0 30.821 -24.2177 -1.47844 4.50089 -0.21134 -0.658047 -24.3611 30.3571 3.94434 16.5169 -0.0 -0.0 -0.0 0.0 -0.0 11.787 -0.0263276 4.86234 -28.3804 -0.102686 -4.3098 20.5252 14.981 3.01544 18.6194 -0.0 -0.0 0.0 0.0 0.0 
